:SAMPLES-PER-SECOND 30
:FRAME-RANGE 1-4244
:FULLY-SPECIFIED
:DEGREES
2123
root  -35.5725 37.7622 20.8818 -165.311 36.1038 -178.043
RightUpLeg  -41.7456 1.51406 -0.821792
RightLeg  23.3202 -2.12868 -1.21608
RightFoot  -11.0879 -0.103085 12.3805
RightToes  -1.33073e-015 0 -3.6325e-017
Spine  3.26506 -4.08724 -2.12577
Spine1  6.97512 -3.74248 0.572913
HEad  7.01258 20.4574 -9.42236
LeftShoulder1  2.26146 -7.24721 -14.8245
LeftArm  1.78398 -19.564 -57.4379
LeftForeArm  37.7579 -2.21696 -12.5936
LeftHand  -0.1123 4.11919 8.92244
RightShoulder  1.35274 1.39737 22.5116
RightArm  -28.9958 5.41571 44.9868
RightForeArm  55.4005 -5.44954 1.32717
RightHand  -0.028787 -5.28191 -19.4039
LeftUpLeg  -3.16178 0.523129 -6.46999
LeftLeg  18.5157 4.8574 2.6125
LeftFoot  -23.107 0.2354 0.937696
LeftToes  2.72522e-012 8.43823e-011 6.24977e-012
2124
root  -34.7252 37.5323 19.5319 -165.248 35.5731 -178.049
RightUpLeg  -42.1108 2.00322 -1.24605
RightLeg  22.3704 -1.15439 -0.730666
RightFoot  -12.4591 0.0441658 13.1835
RightToes  -1.33073e-015 0 -3.6325e-017
Spine  2.71842 -4.26648 -1.9558
Spine1  7.06336 -3.97435 0.834505
HEad  7.52221 20.5804 -9.97607
LeftShoulder1  2.26883 -7.37415 -14.6205
LeftArm  2.52225 -20.2458 -57.7566
LeftForeArm  36.8803 -3.32694 -12.5156
LeftHand  -0.116964 4.13832 9.53132
RightShoulder  1.29509 1.24384 22.1866
RightArm  -29.2986 4.18247 43.7352
RightForeArm  54.9327 -5.45009 1.24577
RightHand  -0.0306181 -5.27087 -19.3818
LeftUpLeg  -0.562842 0.821378 -6.33671
LeftLeg  18.4882 3.70967 2.26142
LeftFoot  -23.0272 0.103163 -0.342877
LeftToes  2.72522e-012 8.43823e-011 6.24977e-012
2125
root  -33.8579 37.3991 18.0998 -164.906 34.9626 -177.173
RightUpLeg  -41.7572 2.2866 -0.501268
RightLeg  23.8049 -0.554936 -0.480345
RightFoot  -11.049 -0.104489 11.4054
RightToes  -1.33073e-015 0 -3.6325e-017
Spine  2.41787 -4.30409 -0.743021
Spine1  7.41996 -4.32486 1.38763
HEad  8.18034 20.886 -10.6291
LeftShoulder1  2.29176 -7.45698 -14.6749
LeftArm  3.80239 -20.0248 -58.0829
LeftForeArm  36.2414 -4.50006 -12.4718
LeftHand  -0.118014 4.20497 10.1991
RightShoulder  1.21636 1.02445 21.7713
RightArm  -29.0986 3.46995 42.7927
RightForeArm  53.6389 -5.51785 1.41508
RightHand  -0.0444014 -5.18765 -19.3598
LeftUpLeg  2.37948 0.832001 -5.43602
LeftLeg  18.2907 2.96905 2.05759
LeftFoot  -21.9342 -0.0715775 -2.1915
LeftToes  2.72522e-012 8.43823e-011 6.24977e-012
2126
root  -32.9529 37.3371 16.6198 -164.242 34.3098 -175.717
RightUpLeg  -40.9593 3.46997 0.243325
RightLeg  26.9437 -1.93158 -1.28829
RightFoot  -5.95702 -0.592232 11.6913
RightToes  -1.33073e-015 0 -3.6325e-017
Spine  2.14668 -4.26178 1.14059
Spine1  8.02944 -4.66778 1.98403
HEad  8.16398 21.0854 -11.4214
LeftShoulder1  2.29954 -7.46584 -14.7349
LeftArm  4.82802 -19.2255 -58.6018
LeftForeArm  35.78 -5.28524 -12.4325
LeftHand  -0.121309 4.22499 10.7401
RightShoulder  1.19074 0.939293 21.723
RightArm  -28.6284 3.44243 41.888
RightForeArm  52.314 -5.60546 1.70258
RightHand  -0.0383503 -5.22413 -19.343
LeftUpLeg  4.60621 0.063681 -3.99221
LeftLeg  19.4055 2.94182 1.88676
LeftFoot  -19.6619 -0.220414 -4.64854
LeftToes  2.72522e-012 8.43823e-011 6.24977e-012
2127
root  -32.0601 37.1615 15.1261 -163.866 34.3449 -174.73
RightUpLeg  -40.6999 3.57021 1.25735
RightLeg  32.3073 -1.20171 -1.05702
RightFoot  -8.44887 -0.291093 9.23041
RightToes  -1.33073e-015 0 -3.6325e-017
Spine  2.69603 -4.0976 2.2364
Spine1  7.74015 -4.64976 2.4977
HEad  7.6566 21.3227 -12.3599
LeftShoulder1  2.33122 -7.51516 -14.9493
LeftArm  5.8343 -17.9655 -59.0695
LeftForeArm  35.14 -5.74276 -12.4818
LeftHand  -0.128608 4.2022 11.3009
RightShoulder  1.21429 0.990933 21.9526
RightArm  -27.961 5.19541 41.2595
RightForeArm  51.7435 -5.67489 2.01597
RightHand  -0.029247 -5.27918 -19.6825
LeftUpLeg  4.44453 -0.260499 -3.20733
LeftLeg  24.9556 3.35252 2.05476
LeftFoot  -16.1245 -0.230026 -7.80883
LeftToes  2.72522e-012 8.43823e-011 6.24977e-012
2128
root  -31.2881 37.1292 13.6834 -163.16 34.5453 -173.993
RightUpLeg  -39.4073 3.58821 1.9058
RightLeg  34.7238 -0.894619 -0.915069
RightFoot  -11.4013 -0.0734427 7.80922
RightToes  -1.33073e-015 0 -3.6325e-017
Spine  2.95051 -3.94565 3.39967
Spine1  7.97447 -4.66645 2.94728
HEad  6.89406 21.6431 -13.2983
LeftShoulder1  2.34311 -7.62247 -14.8365
LeftArm  7.50543 -16.7007 -59.5814
LeftForeArm  34.1624 -5.6931 -12.8015
LeftHand  -0.116451 4.38711 11.9651
RightShoulder  1.29044 1.32458 21.5513
RightArm  -27.9028 8.23315 42.4513
RightForeArm  52.8355 -5.62163 1.88765
RightHand  0.0154064 -5.53525 -20.3286
LeftUpLeg  1.29633 0.738436 -2.63235
LeftLeg  33.6441 3.48439 2.86613
LeftFoot  -9.18853 0.223897 -8.97804
LeftToes  2.72522e-012 8.43823e-011 6.24977e-012
2129
root  -30.6013 37.0351 12.3281 -162.11 35.3768 -173.334
RightUpLeg  -38.3922 4.5494 1.86359
RightLeg  36.7111 -0.487762 -0.648991
RightFoot  -15.3304 0.202776 8.79894
RightToes  -1.33073e-015 0 -3.6325e-017
Spine  3.7344 -3.42132 4.84478
Spine1  7.53921 -4.04771 2.83898
HEad  6.40992 21.3376 -13.9942
LeftShoulder1  2.32659 -7.63467 -14.6446
LeftArm  7.98686 -15.7671 -60.2447
LeftForeArm  35.7865 -4.82579 -13.1344
LeftHand  -0.105065 4.51375 12.1491
RightShoulder  1.40538 1.84658 20.9402
RightArm  -27.352 11.598 44.5743
RightForeArm  54.7248 -5.57382 1.93859
RightHand  0.0363735 -5.64559 -20.8494
LeftUpLeg  -4.60392 1.93007 -2.5706
LeftLeg  44.757 3.61426 4.25382
LeftFoot  -0.243294 1.02065 -10.4702
LeftToes  2.72522e-012 8.43823e-011 6.24977e-012
2130
root  -29.967 36.7733 10.9891 -161.225 36.7413 -171.832
RightUpLeg  -36.9277 6.10376 2.44185
RightLeg  38.979 -0.121274 -0.376432
RightFoot  -19.2606 0.496008 9.03989
RightToes  -1.33073e-015 0 -3.6325e-017
Spine  5.84226 -2.66375 7.4604
Spine1  6.79309 -2.81802 1.96576
HEad  5.34471 20.8773 -15.161
LeftShoulder1  2.33088 -7.53342 -14.9061
LeftArm  9.82664 -14.5831 -60.2614
LeftForeArm  36.0996 -5.39337 -13.2332
LeftHand  -0.104536 4.50206 11.8961
RightShoulder  1.57496 2.64088 20.1191
RightArm  -26.0442 15.1865 47.3217
RightForeArm  55.9308 -5.60259 2.32953
RightHand  0.0328938 -5.6209 -21.1574
LeftUpLeg  -10.6863 4.57489 -2.11097
LeftLeg  55.8016 3.07129 5.38146
LeftFoot  3.13254 0.867983 -6.98034
LeftToes  2.72522e-012 8.43823e-011 6.24977e-012
